<svg width="22" height="28" viewBox="0 0 22 28" fill="none" xmlns="http://www.w3.org/2000/svg">
<path d="M11.0002 0.666748C12.4147 0.666748 13.7712 1.22865 14.7714 2.22885C15.7716 3.22904 16.3335 4.58559 16.3335 6.00008V8.66675H18.6668C19.0608 8.66675 19.4509 8.74435 19.8149 8.89511C20.1789 9.04587 20.5096 9.26685 20.7882 9.54543C21.0667 9.824 21.2877 10.1547 21.4385 10.5187C21.5892 10.8827 21.6668 11.2728 21.6668 11.6667V24.3334C21.6668 24.7274 21.5892 25.1175 21.4385 25.4815C21.2877 25.8454 21.0667 26.1762 20.7882 26.4547C20.5096 26.7333 20.1789 26.9543 19.8149 27.1051C19.4509 27.2558 19.0608 27.3334 18.6668 27.3334H3.3335C2.53785 27.3334 1.77479 27.0173 1.21218 26.4547C0.649567 25.8921 0.333496 25.1291 0.333496 24.3334V11.6667C0.333496 10.8711 0.649567 10.108 1.21218 9.54543C1.77479 8.98282 2.53785 8.66675 3.3335 8.66675H5.66683V6.00008C5.66683 4.58559 6.22873 3.22904 7.22893 2.22885C8.22912 1.22865 9.58568 0.666748 11.0002 0.666748ZM18.6668 10.6667H3.3335C3.06828 10.6667 2.81393 10.7721 2.62639 10.9596C2.43885 11.1472 2.3335 11.4015 2.3335 11.6667V24.3334C2.3335 24.8854 2.7815 25.3334 3.3335 25.3334H18.6668C18.932 25.3334 19.1864 25.2281 19.3739 25.0405C19.5615 24.853 19.6668 24.5986 19.6668 24.3334V11.6667C19.6668 11.4015 19.5615 11.1472 19.3739 10.9596C19.1864 10.7721 18.932 10.6667 18.6668 10.6667ZM11.0002 16.0001C11.5306 16.0001 12.0393 16.2108 12.4144 16.5859C12.7894 16.9609 13.0002 17.4696 13.0002 18.0001C13.0002 18.5305 12.7894 19.0392 12.4144 19.4143C12.0393 19.7894 11.5306 20.0001 11.0002 20.0001C10.4697 20.0001 9.96102 19.7894 9.58595 19.4143C9.21088 19.0392 9.00016 18.5305 9.00016 18.0001C9.00016 17.4696 9.21088 16.9609 9.58595 16.5859C9.96102 16.2108 10.4697 16.0001 11.0002 16.0001ZM11.0002 2.66675C10.1161 2.66675 9.26826 3.01794 8.64314 3.64306C8.01802 4.26818 7.66683 5.11603 7.66683 6.00008V8.66675H14.3335V6.00008C14.3335 5.11603 13.9823 4.26818 13.3572 3.64306C12.7321 3.01794 11.8842 2.66675 11.0002 2.66675Z" fill="url(#paint0_linear_90_97)"/>
<defs>
<linearGradient id="paint0_linear_90_97" x1="11.0002" y1="0.666748" x2="11.0002" y2="27.3334" gradientUnits="userSpaceOnUse">
<stop stop-color="#9711FE"/>
<stop offset="1" stop-color="white"/>
</linearGradient>
</defs>
</svg>
