<svg width="26" height="26" viewBox="0 0 26 26" fill="none" xmlns="http://www.w3.org/2000/svg">
<path d="M17.9999 4.98607e-05C13.5699 4.98607e-05 9.9999 3.57005 9.9999 8.00005C9.9999 8.23505 10.0369 8.55305 10.0629 8.84405L1.4999 17.406C1.03216 17.8708 0.660951 18.4234 0.407642 19.0321C0.154334 19.6409 0.0239258 20.2937 0.0239258 20.953C0.0239258 21.6124 0.154334 22.2652 0.407642 22.874C0.660951 23.4827 1.03216 24.0353 1.4999 24.5C1.9646 24.9678 2.51724 25.339 3.12598 25.5923C3.73472 25.8456 4.38755 25.976 5.0469 25.976C5.70624 25.976 6.35907 25.8456 6.96781 25.5923C7.57656 25.339 8.12919 24.9678 8.59389 24.5L17.1559 15.937C17.4459 15.963 17.7659 16 17.9999 16C22.4299 16 25.9999 12.43 25.9999 8.00005C26.0052 6.71105 25.6824 5.4419 25.0619 4.31205L24.4369 3.15605L23.4999 4.09405L19.1869 8.37405L17.6249 6.81205L21.9049 2.50005L22.8449 1.56205L21.6879 0.93705C20.5576 0.317778 19.2887 -0.00461254 17.9999 4.98607e-05ZM17.9999 2.00005C18.4859 2.00005 18.8479 2.21005 19.2799 2.31305L15.4999 6.09305L14.7799 6.81305L15.4999 7.50005L18.4999 10.5L19.1879 11.22L19.9059 10.5L23.6879 6.72005C23.7909 7.15205 23.9999 7.51405 23.9999 8.00005C23.9999 11.37 21.3699 14 17.9999 14C17.5999 14 17.2799 14 17.0299 13.937L16.4999 13.781L16.0939 14.188L7.1869 23.095C5.9569 24.325 4.1369 24.325 2.9069 23.095L2.8749 23.063C1.6749 21.833 1.6849 20.033 2.9049 18.813L11.8119 9.90705L12.2189 9.50105L12.0609 8.97105C12.0009 8.72105 11.9989 8.40105 11.9989 8.00105C11.9989 4.63105 14.6289 2.00105 17.9989 2.00105L17.9999 2.00005Z" fill="url(#paint0_linear_90_91)"/>
<defs>
<linearGradient id="paint0_linear_90_91" x1="13.0119" y1="0" x2="13.0119" y2="25.976" gradientUnits="userSpaceOnUse">
<stop stop-color="#9711FE"/>
<stop offset="1" stop-color="white"/>
</linearGradient>
</defs>
</svg>
