<svg width="24" height="24" viewBox="0 0 24 24" fill="none" xmlns="http://www.w3.org/2000/svg">
<path fill-rule="evenodd" clip-rule="evenodd" d="M4.76849 1.74733C6.40449 0.946667 9.08849 0 12.0258 0C14.9018 0 17.5152 0.907333 19.1425 1.69733L19.2345 1.742C19.7252 1.98467 20.1212 2.214 20.3998 2.4L17.9372 6C23.6145 11.804 27.9998 23.998 12.0258 23.998C-3.94818 23.998 0.319158 12.0253 6.04582 6L3.59916 2.4C3.78782 2.27667 4.02716 2.13333 4.31249 1.98133C4.45382 1.90533 4.60582 1.82667 4.76849 1.74733ZM16.3545 5.952L18.3258 3.07C16.4925 3.202 14.3112 3.63267 12.2112 4.24067C10.7112 4.674 9.04449 4.608 7.50116 4.32333C7.11225 4.25123 6.726 4.1654 6.34316 4.066L7.62316 5.95067C10.3665 6.92733 13.6105 6.92733 16.3545 5.952ZM6.85316 7.08667C10.0632 8.32667 13.9212 8.32667 17.1312 7.08533C18.4711 8.4978 19.5919 10.1029 20.4565 11.8473C21.3578 13.686 21.8485 15.524 21.7685 17.108C21.6912 18.6367 21.0898 19.9427 19.7165 20.9133C18.2852 21.9247 15.8778 22.6647 12.0252 22.6647C8.16849 22.6647 5.74982 21.9373 4.30516 20.9373C2.92182 19.9787 2.31449 18.6907 2.22849 17.1827C2.13849 15.616 2.61849 13.7873 3.51649 11.936C4.37316 10.1707 5.56849 8.47133 6.85316 7.08667ZM6.08649 2.61067C6.61982 2.76933 7.17716 2.90733 7.74249 3.012C9.17582 3.276 10.6132 3.31467 11.8398 2.95933C13.2693 2.5429 14.7232 2.21538 16.1932 1.97867C14.9665 1.60933 13.5318 1.33333 12.0252 1.33333C9.72849 1.33333 7.58649 1.974 6.08649 2.61067Z" fill="url(#paint0_linear_90_101)"/>
<defs>
<linearGradient id="paint0_linear_90_101" x1="11.9981" y1="0" x2="11.9981" y2="23.998" gradientUnits="userSpaceOnUse">
<stop stop-color="#9711FE"/>
<stop offset="1" stop-color="white"/>
</linearGradient>
</defs>
</svg>
