<svg width="26" height="26" viewBox="0 0 26 26" fill="none" xmlns="http://www.w3.org/2000/svg">
<path d="M18 0.0310059L17.344 0.750006C15.875 2.36701 14.664 3.09001 13.656 3.56301C12.648 4.03501 11.801 4.17601 10.969 4.81301C10.082 5.49301 8.793 6.79701 8.25 9.12501C7.086 9.37901 6.234 9.82501 5.562 10.406C4.898 10.98 4.398 11.633 3.782 12.344C3.777 12.352 3.785 12.367 3.782 12.375C2.898 13.391 2.125 14.485 0.625 15.063L0 15.313V26H19.063C20.156 25.941 20.914 25.184 21.375 24.437C21.835 23.691 22.09 22.883 22.219 22.219C22.551 20.527 23.156 15.656 23.156 15.656L23.188 15.563V15.469C23.156 14.793 22.878 14.219 22.531 13.687L23.656 10.344L25.438 7.65601L25.938 6.93701L25.281 6.34401L18.719 0.656006L18 0.0310059ZM18.063 2.78101L23.281 7.31301L21.906 9.34301L21.813 9.43801L21.781 9.59401L20.875 12.281C20.402 12.086 19.915 11.949 19.375 11.969H19.312L13 12H12V15.875C11.86 16.965 11.254 17.387 10.5 17.688C10.25 17.789 10.219 17.734 10 17.781V11.97C9.836 8.26301 11.156 7.19601 12.188 6.40701C12.473 6.18801 13.308 5.93501 14.5 5.37601C15.496 4.90701 16.734 4.06601 18.063 2.78101ZM8.063 11.375C8.059 11.602 7.988 11.762 8 12V20H9C9 20 10.07 19.988 11.219 19.531C12.367 19.074 13.754 18.004 14 16.125V14L19.375 13.969H19.406C19.845 13.945 20.2756 14.0958 20.6036 14.3886C20.9316 14.6813 21.1302 15.0921 21.156 15.531C21.152 15.547 21.106 15.918 21.094 16H17V18H20.844C20.738 18.773 20.641 19.258 20.531 20H17V22H20.219C20.1008 22.4838 19.9111 22.9473 19.656 23.375C19.383 23.82 19.148 23.988 18.938 24H2V16.531C3.621 15.671 4.629 14.434 5.281 13.688C5.957 12.914 6.421 12.328 6.875 11.938C7.172 11.684 7.637 11.539 8.063 11.375Z" fill="url(#paint0_linear_90_93)"/>
<defs>
<linearGradient id="paint0_linear_90_93" x1="12.969" y1="0.0310059" x2="12.969" y2="26" gradientUnits="userSpaceOnUse">
<stop stop-color="#9000FF"/>
<stop offset="1" stop-color="white"/>
</linearGradient>
</defs>
</svg>
