<svg width="42" height="50" viewBox="0 0 42 50" fill="none" xmlns="http://www.w3.org/2000/svg">
<path d="M15.8333 35.3333H2.91667V48.25M26.1667 14.6667H39.0833V1.75M1.83942 17.2578C3.28814 13.6732 5.71329 10.567 8.83929 8.29195C11.9653 6.01693 15.6668 4.66439 19.5231 4.38804C23.3794 4.11168 27.2359 4.92259 30.6544 6.72862C34.0728 8.53464 36.9161 11.2634 38.8612 14.6047M40.1632 32.7422C38.7147 36.3274 36.2896 39.4343 33.1633 41.7099C30.0371 43.9854 26.3352 45.3382 22.4783 45.6146C18.6215 45.891 14.7645 45.0798 11.3458 43.2733C7.92702 41.4667 5.08364 38.7374 3.13883 35.3953" stroke="#9711FE" stroke-width="2" stroke-linecap="round" stroke-linejoin="round"/>
</svg>
